<svg xmlns="http://www.w3.org/2000/svg" width="130" height="130" viewBox="0 0 130 130">
  <g fill-rule="evenodd">
    <path fill="#000" fill-rule="nonzero" d="M120.801538,12.0724286 C116.292313,14.1510006 111.491321,15.518554 106.567635,16.1269286 C111.684737,12.9406429 115.61558,7.89528571 117.465033,1.88335714 C112.623037,4.87374159 107.297435,6.9885947 101.729582,8.13207143 C97.2080256,3.12678571 90.766952,0 83.6349005,0 C69.9482231,0 58.8490888,11.5284286 58.8490888,25.7489286 C58.8490888,27.7670714 59.0701534,29.733 59.4929545,31.6175714 C38.8940823,30.5441429 20.6339044,20.2931429 8.40891097,4.71507143 C6.19823269,8.66617768 5.04215947,13.1250222 5.05307781,17.6581429 C5.05307781,26.5916429 9.42846576,34.4747857 16.0785239,39.0902857 C12.1305554,38.9587577 8.27535172,37.8532701 4.85254926,35.8712143 C4.85013325,35.9792857 4.85013325,36.0873571 4.85013325,36.1966429 C4.85013325,48.6697857 13.3931326,59.0798571 24.7314516,61.4452857 C21.0875987,62.4748476 17.2536506,62.6266901 13.540509,61.8885 C16.6921896,72.1176429 25.8464386,79.5624286 36.6931002,79.7700714 C28.2117091,86.6769286 17.5257119,90.7921429 5.91317616,90.7921429 C3.93668789,90.7918367 1.96202616,90.6714027 0,90.4315 C10.96867,97.7390714 23.9969856,102 37.9904958,102 C83.5769163,102 108.50648,62.764 108.50648,28.7348571 C108.50648,27.6177143 108.48232,26.5078571 108.435208,25.4040714 C113.310778,21.7320381 117.498044,17.2179146 120.801538,12.0724286 L120.801538,12.0724286 Z" transform="translate(6 14)"/>
  </g>
</svg>
