<svg xmlns="http://www.w3.org/2000/svg" width="130" height="130" viewBox="0 0 130 130">
  <g fill-rule="evenodd">
    <path fill="#000" fill-rule="nonzero" d="M36.3733333,72.7481977 L60.5306667,92.8678488 L60.476,92.9146512 L36.3733333,72.7481977 Z M60.504,88.1047093 L38.688,69.9360465 L60.4573333,88.1461628 L60.504,88.1047093 Z M120,40.6217442 L120,114.074651 L0,114.074651 L0,40.6150581 L12.8293333,32.1812791 L12.8293333,12.0482558 L43.456,12.0482558 L60.3786667,0.924011628 L77.0853333,12.0482558 L107.162667,12.0482558 L107.162667,32.0743023 L120,40.6217442 Z M107.164,48.5687791 L115.161333,41.777093 L107.164,36.4523256 L107.164,48.5687791 Z M50.088,12.0482558 L70.512,12.0482558 L60.3653333,5.29267442 L50.088,12.0482558 Z M16.4653333,51.3475 L38.688,69.9360465 L60.4573333,88.1461628 L60.5053333,88.1047093 L103.529333,51.3581977 L103.529333,34.0319767 L103.529333,29.6539535 L103.529333,15.6948256 L82.5626667,15.6948256 L75.988,15.6948256 L44.5413333,15.6948256 L37.9093333,15.6948256 L16.4653333,15.6948256 L16.4653333,29.791686 L16.4653333,34.1523256 L16.4653333,51.3475 Z M4.87066667,41.7744186 L12.8293333,48.4029651 L12.8293333,36.5432558 L4.87066667,41.7744186 Z M116.364,45.533314 L60.5786667,92.9066279 L60.532,92.8678488 L36.3733333,72.7481977 L3.636,45.4838372 L3.636,110.429419 L116.365333,110.429419 L116.365333,45.533314 L116.364,45.533314 Z M59.7293333,68.7753488 C50.308,68.7753488 42.32,61.8579651 42.32,50.7938953 C42.32,38.9221512 50.5346667,28.6644186 63.2946667,28.6644186 C73.292,28.6644186 80.0146667,35.6941279 80.0146667,45.3180233 C80.0146667,53.9630814 75.1866667,59.0364535 69.7853333,59.0364535 C67.4853333,59.0364535 65.36,57.4799419 65.5346667,53.9630814 L65.304,53.9630814 C63.2933333,57.3636047 60.648,59.0364535 57.2013333,59.0364535 C53.8693333,59.0364535 50.996,56.3259302 50.996,51.7727326 C50.996,44.6280233 56.628,38.1171512 64.616,38.1171512 C67.084,38.1171512 69.2693333,38.6359884 70.7613333,39.3273256 L68.8106667,49.7575581 C67.9466667,54.1369186 68.636,56.1561047 70.5346667,56.2122674 C73.464,56.2724419 76.74,52.3517442 76.74,45.6656977 C76.74,37.310814 71.7413333,31.3161047 62.8333333,31.3161047 C53.468,31.3161047 45.596,38.7523256 45.596,50.4475581 C45.596,60.0714535 51.8573333,66.0073256 60.3626667,66.0073256 C63.6386667,66.0073256 66.6826667,65.3159884 69.0386667,63.990814 L69.9586667,66.47 C66.7973333,68.1401744 63.5813333,68.7753488 59.7293333,68.7753488 Z M66.7973333,41.5725 C66.224,41.4013372 65.2453333,41.1686628 63.924,41.1686628 C58.8693333,41.1686628 54.7893333,45.9505233 54.7893333,51.5427326 C54.7893333,54.0780814 56.0506667,55.922093 58.5826667,55.922093 C61.9146667,55.922093 64.9586667,51.6590698 65.592,48.0833721 L66.7973333,41.5725 Z" transform="translate(5 7)"/>
  </g>
</svg>
