<svg xmlns="http://www.w3.org/2000/svg" width="130" height="130" viewBox="0 0 130 130">
  <g fill-rule="evenodd">
    <g fill-rule="nonzero" transform="translate(6 5)">
      <path fill="#000" d="M110.592,0 L9.03393103,0 C4.18096552,0 0.237517241,3.84105556 0.237517241,8.57461111 L0.237517241,110.413819 C0.237517241,115.152333 4.18096552,119 9.03393103,119 L110.592,119 C115.453241,119 119.413241,115.15316 119.413241,110.413819 L119.413241,8.57461111 C119.413241,3.84105556 115.453241,0 110.592,0 Z"/>
      <path fill="#FFF" d="M17.9073103 44.6126042L35.5837241 44.6126042 35.5837241 101.403701 17.9073103 101.403701 17.9073103 44.6126042zM26.7492414 16.3831597C32.4 16.3831597 36.9922759 20.9687917 36.9922759 26.6138542 36.9922759 32.263875 32.4 36.8495069 26.7492414 36.8495069 21.0835862 36.8495069 16.497931 32.263875 16.497931 26.6138542 16.4987586 20.9696181 21.0844138 16.3831597 26.7492414 16.3831597L26.7492414 16.3831597zM46.6708966 44.6126042L63.624 44.6126042 63.624 52.3723958 63.8606897 52.3723958C66.2209655 47.9074167 71.985931 43.2003056 80.5853793 43.2003056 98.4844138 43.2003056 101.788966 54.963125 101.788966 70.2529722L101.788966 101.402875 84.1249655 101.402875 84.1249655 73.7849583C84.1249655 67.1994653 84.0041379 58.7281528 74.9395862 58.7281528 65.7426207 58.7281528 64.3307586 65.9020347 64.3307586 73.3089583L64.3307586 101.402875 46.670069 101.402875 46.670069 44.6126042 46.6708966 44.6126042z"/>
    </g>
  </g>
</svg>
