<svg xmlns="http://www.w3.org/2000/svg" width="130" height="130" viewBox="0 0 130 130">
  <g fill-rule="evenodd">
    <g fill-rule="nonzero" transform="translate(5 4)">
      <path d="M60.5,10.9166488 C76.6491786,10.9166488 78.5618909,10.9783492 84.9400794,11.2693254 C90.8369087,11.5384544 94.0390873,12.5235 96.1705119,13.3517738 C98.7974821,14.3213391 101.173761,15.8673236 103.124651,17.8760694 C105.133397,19.8269588 106.679381,22.2032382 107.648946,24.8302083 C108.47722,26.9613929 109.462506,30.1638115 109.731395,36.0606409 C110.022371,42.4383492 110.084071,44.3510615 110.084071,60.5007202 C110.084071,76.650379 110.022371,78.5626111 109.731395,84.9407996 C109.462266,90.837629 108.47698,94.0398075 107.648946,96.1712321 C105.614245,101.445876 101.445156,105.614965 96.1705119,107.649667 C94.0393274,108.47794 90.8369087,109.463226 84.9400794,109.732115 C78.5635714,110.023091 76.6508591,110.084792 60.5,110.084792 C44.3491409,110.084792 42.4371488,110.023091 36.0599206,109.732115 C30.1630913,109.462986 26.9609127,108.4777 24.8294881,107.649667 C22.2025142,106.680109 19.8262333,105.134123 17.8753492,103.125371 C15.8666096,101.174477 14.3206262,98.7981986 13.3510536,96.1712321 C12.5227798,94.0400476 11.537494,90.837629 11.2686052,84.9407996 C10.977629,78.5633313 10.9159286,76.650379 10.9159286,60.5007202 C10.9159286,44.3510615 10.977629,42.4388294 11.2686052,36.0606409 C11.5377341,30.1638115 12.5227798,26.9616329 13.3510536,24.8302083 C14.3207271,22.2031072 15.8668799,19.8267391 17.8758294,17.8758294 C19.8267239,15.8670898 22.2030018,14.3211064 24.8299683,13.3515337 C26.9611528,12.5232599 30.1635714,11.5379742 36.0604008,11.2690853 C42.4381091,10.9781091 44.3508214,10.9164087 60.5004802,10.9164087 L60.5,10.9166488 Z M60.5004802,0.0189662698 C44.0747302,0.0189662698 42.014369,0.0885892857 35.5643968,0.382926587 C29.1266687,0.67678373 24.7303353,1.69904167 20.8833036,3.19425595 C16.8477132,4.71290948 13.1919581,7.09357456 10.1709623,10.1702421 C7.09360144,13.1910484 4.71227161,16.8468178 3.19305556,20.8825833 C1.69904167,24.7298552 0.67678373,29.1261885 0.384126984,35.5639167 C0.0885892857,42.0138889 0.0189662698,44.07425 0.0189662698,60.5 C0.0189662698,76.92575 0.0885892857,78.9861111 0.384126984,85.4360833 C0.677984127,91.8738115 1.70024206,96.2701448 3.19545635,100.117177 C4.71411679,104.152763 7.09478096,107.808517 10.1714425,110.829518 C13.1924284,113.906197 16.8481863,116.286864 20.8837837,117.805504 C24.7310556,119.300718 29.1273889,120.322976 35.564877,120.616833 C42.0158095,120.911171 44.0754504,120.980794 60.5009603,120.980794 C76.9264702,120.980794 78.9870714,120.911171 85.4370437,120.616833 C91.8747718,120.322976 96.2711052,119.300718 100.118137,117.805504 C108.242121,114.663458 114.664418,108.24116 117.806464,100.117177 C119.301679,96.2699048 120.323937,91.8735714 120.617794,85.4360833 C120.912131,78.9851508 120.981754,76.9255099 120.981754,60.5 C120.981754,44.0744901 120.912131,42.0138889 120.617794,35.5639167 C120.323937,29.1261885 119.301679,24.7298552 117.806464,20.8828234 C116.287825,16.847226 113.907158,13.1914681 110.830478,10.1704821 C107.809421,7.09320125 104.1534,4.71203134 100.117417,3.19305556 C96.2701448,1.69904167 91.8738115,0.67678373 85.4360833,0.384126984 C78.9861111,0.0885892857 76.92575,0.0189662698 60.5,0.0189662698 L60.5,0.0189662698 L60.5004802,0.0189662698 Z"/>
      <path d="M60.5,29.4421329 C43.3472137,29.4421329 29.4421329,43.3472137 29.4421329,60.5 C29.4421329,77.6527863 43.3472137,91.5578671 60.5,91.5578671 C77.6527863,91.5578671 91.5578671,77.6527863 91.5578671,60.5 C91.5578671,43.3472137 77.6527863,29.4421329 60.5,29.4421329 L60.5,29.4421329 Z M60.5,80.6601845 C49.3658688,80.6600519 40.3399672,71.6339712 40.3400556,60.4998399 C40.340144,49.3657087 49.3661889,40.3397713 60.5003201,40.3398155 C71.6344513,40.3398597 80.6604246,49.3658688 80.6604246,60.5 C80.660292,71.6342013 71.6342013,80.6601845 60.5,80.6601845 Z"/>
      <ellipse cx="92.785" cy="28.215" rx="7.258" ry="7.258"/>
    </g>
  </g>
</svg>
