<svg xmlns="http://www.w3.org/2000/svg" width="130" height="130" viewBox="0 0 130 130">
  <g fill-rule="evenodd">
    <g fill-rule="nonzero" transform="translate(5 8)">
      <path d="M59.8889256,0 C26.8175207,0 0,26.8068814 0,59.8762373 C0,86.3311271 17.16,108.775297 40.9557025,116.692627 C43.9487603,117.24689 45.0476033,115.393729 45.0476033,113.812246 C45.0476033,112.384449 44.9920661,107.667763 44.966281,102.664525 C28.305124,106.286568 24.7894215,95.5999068 24.7894215,95.5999068 C22.065124,88.6790593 18.1398347,86.8387881 18.1398347,86.8387881 C12.7061157,83.1225508 18.5494215,83.1988983 18.5494215,83.1988983 C24.5633058,83.6212881 27.7299174,89.369161 27.7299174,89.369161 C33.071405,98.5229237 41.7401653,95.8765424 45.157686,94.3466186 C45.6952066,90.4766949 47.2472727,87.8352712 48.96,86.3400508 C35.6578512,84.8259915 21.6743802,79.6918729 21.6743802,56.7489661 C21.6743802,50.211839 24.0138843,44.8704915 27.8449587,40.6773305 C27.2231405,39.1692203 25.1732231,33.0792712 28.425124,24.8317627 C28.425124,24.8317627 33.4542149,23.2225169 44.898843,30.9693051 C49.6760331,29.6426441 54.7993388,28.9773305 59.8889256,28.9545254 C64.9785124,28.9773305 70.1057851,29.6426441 74.8919008,30.9693051 C86.3226446,23.2225169 91.3447934,24.8317627 91.3447934,24.8317627 C94.6046281,33.0792712 92.553719,39.1692203 91.9319008,40.6773305 C95.7719008,44.8704915 98.0955372,50.211839 98.0955372,56.7489661 C98.0955372,79.7464068 84.0852893,84.8101271 70.7494215,86.2924576 C72.8975207,88.1505763 74.8115702,91.7944322 74.8115702,97.3806864 C74.8115702,105.392212 74.7421488,111.840102 74.7421488,113.812246 C74.7421488,115.405627 75.8201653,117.272669 78.8558678,116.684695 C102.638678,108.758441 119.77686,86.3222034 119.77686,59.8762373 C119.77686,26.8068814 92.9633058,0 59.8889256,0"/>
      <path d="M23.4220857 85.294964C23.2901848 85.5924216 22.8220857 85.6816589 22.3956394 85.4774047 21.9612592 85.2820742 21.7172923 84.8765403 21.8581187 84.5780911 21.9870443 84.2717098 22.4561352 84.1864386 22.8895237 84.3916844 23.3248956 84.5870149 23.5728295 84.9965149 23.4220857 85.294964M25.3762198 88.9144929C25.0906 89.1792302 24.5322529 89.056281 24.1534099 88.6378573 23.7616743 88.2204251 23.6882859 87.6621963 23.9778727 87.3934929 24.2724181 87.1287556 24.8139058 87.2526963 25.206633 87.6701285 25.5983686 88.0925183 25.6747322 88.646781 25.3762198 88.9144929M28.3889336 92.2769335C28.0219914 92.5317555 27.4219914 92.2927979 27.0510823 91.7603487 26.6841402 91.2278996 26.6841402 90.5893572 27.0590162 90.3335436 27.430917 90.0777301 28.0219914 90.307764 28.3978592 90.836247 28.7638096 91.3776199 28.7638096 92.0161623 28.3889336 92.2769335M30.8151046 95.1795896C30.4868401 95.5414964 29.7876665 95.4443269 29.275931 94.9505473 28.7522946 94.4676744 28.6065095 93.7825303 28.9357657 93.4206235 29.2679971 93.0577252 29.9711376 93.1598523 30.4868401 93.6496659 31.0065095 94.1315473 31.1651872 94.821649 30.8151046 95.1795896M35.2324171 97.4857468C35.0876237 97.9547383 34.4142353 98.1679163 33.7358882 97.9686197 33.0585328 97.7633739 32.615227 97.2140688 32.7520865 96.7401197 32.892913 96.2681536 33.5692766 96.0460519 34.2525824 96.2592298 34.928946 96.4634841 35.3732436 97.0088231 35.2324171 97.4857468M40.2595041 97.0518536C40.2763636 97.5456332 39.701157 97.9551332 38.9890909 97.964057 38.2730579 97.9799214 37.6938843 97.5803366 37.6859504 97.0944892 37.6859504 96.5957519 38.2482645 96.190218 38.9642975 96.1783197 39.6763636 96.1644383 40.2595041 96.5610485 40.2595041 97.0518536M45.198054 96.8625884C45.2833432 97.3444698 44.7884672 97.839241 44.0813597 97.9711139 43.3861531 98.0980291 42.7425168 97.8005715 42.6542523 97.3226562 42.5679713 96.8288766 43.071773 96.3341054 43.7659878 96.2061986 44.474087 96.0832494 45.107806 96.3727749 45.198054 96.8625884"/>
    </g>
  </g>
</svg>
