<svg xmlns="http://www.w3.org/2000/svg" width="130" height="130" viewBox="0 0 130 130">
  <g fill-rule="evenodd">
    <g fill-rule="nonzero" transform="translate(5 5)">
      <path d="M59.5517355,0 C26.6618182,0 0,26.677686 0,59.5517355 C0,92.4257851 26.6618182,119.055868 59.5041322,119.102479 C92.3930579,119.102479 119.054876,92.4416529 119.054876,59.5517355 C119.054876,26.6618182 92.4406612,0 59.5041322,0 L59.5517355,0 Z M59.5517355,109.321983 C32.107438,109.321983 9.78049587,86.9940496 9.78049587,59.5507438 C9.78049587,32.107438 32.107438,9.81818182 59.5041322,9.81818182 C86.947438,9.81818182 109.289256,32.1322314 109.289256,59.5894215 C109.289256,87.0466116 86.9950413,109.289256 59.5041322,109.321983 L59.5517355,109.321983 Z"/>
      <path d="M96.3441322,47.9196694 C96.3371901,47.8730579 96.3252893,47.8284298 96.3183471,47.7818182 C96.3024793,47.692562 96.2866116,47.6033058 96.2628099,47.5160331 C96.2489256,47.4634711 96.2300826,47.4128926 96.2132231,47.3633058 C96.1884298,47.2859504 96.1626446,47.208595 96.1319008,47.1332231 C96.1110744,47.0806612 96.0852893,47.0290909 96.0614876,46.9785124 C96.0287603,46.9071074 95.9940496,46.8366942 95.9543802,46.7692562 C95.9256198,46.7186777 95.8938843,46.6700826 95.8641322,46.6224793 C95.8214876,46.5570248 95.7778512,46.492562 95.7302479,46.4310744 C95.6955372,46.3844628 95.658843,46.3378512 95.6221488,46.2932231 C95.5715702,46.2347107 95.5190083,46.1771901 95.4644628,46.1226446 C95.4228099,46.08 95.3821488,46.0373554 95.3385124,45.9986777 C95.28,45.9461157 95.2204959,45.8955372 95.1590083,45.8479339 C95.111405,45.8112397 95.0647934,45.7745455 95.0152066,45.7398347 C94.9963636,45.7279339 94.9804959,45.7130579 94.9626446,45.701157 L61.3061157,23.3057851 C60.2429752,22.5966942 58.8585124,22.5966942 57.7953719,23.3057851 L24.138843,45.7001653 C24.1209917,45.7120661 24.105124,45.7269421 24.086281,45.738843 C24.0366942,45.7735537 23.9900826,45.8102479 23.9434711,45.8380165 C23.8819835,45.8866116 23.8214876,45.9371901 23.7639669,45.9887603 C23.7193388,46.027438 23.6786777,46.0700826 23.6370248,46.1127273 C23.5814876,46.1672727 23.5299174,46.2247934 23.4803306,46.3110744 C23.4426446,46.3557025 23.4059504,46.402314 23.3712397,46.4489256 C23.3246281,46.5104132 23.28,46.574876 23.2383471,46.6403306 C23.2066116,46.6889256 23.1768595,46.7375207 23.1471074,46.7395041 C23.1084298,46.8069421 23.073719,46.8773554 23.04,46.9487603 C23.0161983,46.9993388 22.9904132,47.0519008 22.9695868,47.1034711 C22.938843,47.178843 22.9130579,47.2561983 22.8882645,47.3018182 C22.871405,47.3523967 22.8535537,47.4029752 22.8386777,47.4545455 C22.8158678,47.5418182 22.8,47.6310744 22.7831405,47.7203306 C22.7752066,47.7669421 22.7633058,47.8115702 22.7583471,47.8195041 C22.7395041,47.9553719 22.7295868,48.0922314 22.7295868,48.2320661 L22.7295868,70.7702479 L22.7295868,71.1847934 C22.7355372,71.1847934 22.7295868,71.2839669 22.7295868,71.2839669 C22.7464463,71.3831405 22.7295868,71.482314 22.8287603,71.5497521 C22.8436364,71.6489256 22.8287603,71.6489256 22.9279339,71.7024793 C22.9527273,71.8016529 23.0271074,71.9008264 23.0271074,71.9008264 C23.0479339,72 23.0271074,72 23.126281,72.0535537 C23.16,72.1527273 23.2254545,72.1527273 23.2254545,72.2647934 C23.2542149,72.2647934 23.3246281,72.3639669 23.3246281,72.3639669 C23.366281,72.4631405 23.4238017,72.4631405 23.4238017,72.5553719 C23.4585124,72.5553719 23.5229752,72.6545455 23.5229752,72.6932231 C23.572562,72.7923967 23.6221488,72.7923967 23.7213223,72.8915702 C23.7629752,72.8915702 23.8204959,72.9907438 23.8204959,73.0155372 C23.8780165,73.1147107 23.9196694,73.1147107 24.018843,73.166281 C24.0654545,73.166281 24.1180165,73.2654545 24.1180165,73.2654545 C24.1368595,73.2654545 24.1180165,73.2654545 24.2171901,73.3041322 L57.7953719,95.8413223 C58.3269421,96.2380165 58.9854545,96.3371901 59.5804959,96.3738843 C60.191405,96.3738843 60.8033058,96.1953719 61.3358678,95.8413223 L94.9933884,73.4033058 C95.0112397,73.391405 95.0271074,73.3765289 95.0459504,73.3646281 C95.0955372,73.3299174 95.1421488,73.2932231 95.1897521,73.2565289 C95.2512397,73.2079339 95.3107438,73.1573554 95.3692562,73.1057851 C95.4128926,73.0671074 95.4535537,73.0244628 95.4952066,72.9818182 C95.5507438,72.9272727 95.602314,72.8697521 95.6528926,72.8112397 C95.6895868,72.7666116 95.726281,72.7219835 95.7609917,72.6733884 C95.808595,72.6119008 95.8522314,72.547438 95.894876,72.4819835 C95.9246281,72.4333884 95.9563636,72.3847934 95.985124,72.3371901 C96.0247934,72.2677686 96.0595041,72.1973554 96.0922314,72.1259504 C96.1160331,72.0753719 96.1418182,72.0247934 96.1626446,71.9732231 C96.1933884,71.8958678 96.2191736,71.8185124 96.2439669,71.741157 C96.2608264,71.6905785 96.2796694,71.64 96.2935537,71.5884298 C96.3163636,71.501157 96.3332231,71.4119008 96.3490909,71.3226446 C96.3570248,71.2780165 96.3689256,71.231405 96.374876,71.1867769 C96.3927273,71.0489256 96.4026446,70.9120661 96.4026446,70.7722314 L96.4026446,48.3322314 C96.3728926,48.1983471 96.3966942,48.0991736 96.2975207,47.9196694 L96.3441322,47.9196694 Z M62.7153719,31.8079339 L87.5097521,48.3361983 L76.4350413,55.7454545 L62.7153719,46.5679339 L62.7153719,31.8079339 Z M56.3861157,31.8347107 L56.3861157,46.5947107 L42.667438,55.7454545 L31.5917355,48.3361983 L56.3861157,31.8079339 L56.3861157,31.8347107 Z M29.058843,54.2558678 L36.9758678,59.5517355 L29.058843,64.8476033 L29.058843,54.2558678 Z M56.3861157,87.2945455 L31.5917355,70.8099174 L42.667438,63.4026446 L56.3861157,72.5781818 L56.3861157,87.2945455 L56.3861157,87.2945455 Z M59.5517355,67.0383471 L48.3590083,59.5517355 L59.5517355,52.065124 L70.7434711,59.5517355 L59.5517355,67.0383471 Z M62.7153719,87.2945455 L62.7153719,72.5355372 L76.4350413,63.36 L87.5097521,70.7672727 L62.7153719,87.2945455 Z M90.0436364,64.8476033 L82.1276033,59.5517355 L90.0436364,54.2558678 L90.0436364,64.8476033 Z"/>
    </g>
  </g>
</svg>
