<svg xmlns="http://www.w3.org/2000/svg" width="130" height="130" viewBox="0 0 130 130">
  <g fill-rule="evenodd">
    <path fill="#000" fill-rule="nonzero" d="M111.761968,1.640625 L6.14361702,49.8046875 C-1.33643617,52.96875 -1.03723404,57.890625 4.64760638,59.6484375 L30.9773936,69.4921875 L41.150266,106.054688 C42.3470745,109.921875 41.7486702,111.328125 45.0398936,111.328125 C47.7327128,111.328125 48.9295213,109.921875 50.724734,108.164063 L63.8896277,93.046875 L91.1170213,116.953125 C96.5026596,120.46875 99.793883,118.359375 101.289894,111.328125 L119.242021,11.484375 C121.037234,3.046875 116.549202,-0.8203125 111.761968,1.640625 Z M35.1662234,67.3828125 L94.4082447,23.0859375 C97.6994681,20.9765625 100.392287,22.03125 97.9986702,24.4921875 L46.8351064,78.28125 L45.0398936,103.59375 L35.1662234,67.3828125 Z" transform="translate(5 8)"/>
  </g>
</svg>
